<svg width="56" height="56" viewBox="0 0 56 56" fill="none" xmlns="http://www.w3.org/2000/svg">
<path d="M31.5234 7.32436C30.0021 4.55936 25.9981 4.55936 24.4744 7.32436C22.4708 10.9653 20.8191 14.789 19.5418 18.7437C19.4815 18.8984 19.3756 19.0311 19.238 19.1241C19.1004 19.217 18.9378 19.2658 18.7718 19.264C15.3487 19.353 11.9368 19.693 8.56345 20.2814C5.44378 20.825 4.06944 24.5677 6.44011 26.8847C6.73878 27.1771 7.04056 27.468 7.34545 27.7574C9.62934 29.92 12.0476 31.9361 14.5858 33.7937C14.7011 33.8702 14.7884 33.9821 14.8347 34.1126C14.881 34.243 14.8837 34.3849 14.8424 34.517C13.5611 38.3616 12.6455 42.3186 12.1078 46.3354C11.6644 49.658 15.1831 51.6974 17.9294 50.288C21.2635 48.5793 24.4515 46.5994 27.4611 44.3684C27.6187 44.2569 27.807 44.197 28.0001 44.197C28.1932 44.197 28.3815 44.2569 28.5391 44.3684C31.547 46.602 34.7352 48.5821 38.0708 50.288C40.8171 51.6974 44.3358 49.658 43.8924 46.3354C43.3555 42.3187 42.4407 38.3617 41.1601 34.517C41.1188 34.3849 41.1215 34.243 41.1678 34.1126C41.2141 33.9821 41.3015 33.8702 41.4168 33.7937C44.2926 31.6888 47.014 29.3806 49.5601 26.887C51.9308 24.5677 50.5564 20.825 47.4368 20.2814C44.0627 19.6929 40.65 19.3529 37.2261 19.264C37.0605 19.2654 36.8984 19.2163 36.7613 19.1234C36.6241 19.0305 36.5185 18.898 36.4584 18.7437C35.1852 14.7875 33.531 10.9634 31.5234 7.32436Z" fill="#FFBB00"/>
</svg>
