<svg width="46" height="46" viewBox="0 0 46 46" fill="none" xmlns="http://www.w3.org/2000/svg">
<path d="M24.9922 3.16744C24.7938 2.81335 24.5045 2.51854 24.1543 2.31335C23.8041 2.10816 23.4055 2 22.9996 2C22.5936 2 22.1951 2.10816 21.8448 2.31335C21.4946 2.51854 21.2054 2.81335 21.0069 3.16744C20.5402 4.01677 20.0914 4.87699 19.6606 5.7481C18.303 8.50367 17.1488 11.3548 16.2072 14.2788C15.8829 15.2844 14.9216 15.9821 13.8202 16.0124C10.4817 16.1002 7.1541 16.4316 3.86389 17.0041C2.05789 17.3214 1.37889 19.3794 2.66222 20.6348C2.95467 20.9225 3.25022 21.2064 3.54889 21.4864C5.78203 23.5954 8.14318 25.5646 10.6189 27.3828C11.4752 28.0104 11.8276 29.0861 11.5009 30.0708C10.2565 33.8112 9.36593 37.6602 8.84089 41.5671C8.60756 43.3288 10.4929 44.5724 12.1309 43.7324C15.379 42.067 18.485 40.1378 21.4176 37.9644C21.8769 37.6292 22.4309 37.4485 22.9996 37.4485C23.5682 37.4485 24.1222 37.6292 24.5816 37.9644C27.5136 40.1387 30.6196 42.0679 33.8682 43.7324C35.5039 44.5724 37.3916 43.3288 37.1582 41.5671C37.068 40.906 36.9692 40.2488 36.8619 39.5954C36.3229 36.3639 35.5326 33.1794 34.4982 30.0708C34.1716 29.0861 34.5216 28.0104 35.3802 27.3828C38.1889 25.3247 40.8479 23.0697 43.3369 20.6348C44.6202 19.3794 43.9436 17.3214 42.1352 17.0041C38.8455 16.4283 35.5176 16.0968 32.1789 16.0124C31.651 16.004 31.1386 15.8331 30.7114 15.5228C30.2843 15.2126 29.9632 14.7782 29.7919 14.2788C28.5522 10.4303 26.9449 6.70784 24.9922 3.16744Z" stroke="black" stroke-width="3.5" stroke-linecap="round" stroke-linejoin="round"/>
</svg>
